<?xml version="1.0" standalone="no"?>
<!DOCTYPE svg PUBLIC "-//W3C//DTD SVG 20010904//EN"
 "http://www.w3.org/TR/2001/REC-SVG-20010904/DTD/svg10.dtd">
<svg version="1.0" xmlns="http://www.w3.org/2000/svg"
 width="512.000000pt" height="512.000000pt" viewBox="0 0 512.000000 512.000000"
 preserveAspectRatio="xMidYMid meet">

<g transform="translate(0.000000,512.000000) scale(0.100000,-0.100000)"
fill="#000000" stroke="none">
<path d="M3525 4894 c-300 -50 -690 -224 -1001 -446 -45 -32 -84 -58 -88 -58
-4 0 -19 13 -32 30 -35 41 -175 132 -275 179 -248 116 -553 204 -786 226 -87
8 -83 26 -48 -194 25 -164 60 -455 71 -603 l7 -87 -38 -7 c-21 -4 -227 -3
-459 2 -439 9 -564 9 -575 -2 -13 -13 -2 -134 20 -215 61 -228 233 -553 397
-749 25 -30 52 -62 59 -71 11 -13 -8 -31 -138 -134 -83 -66 -191 -162 -241
-214 -135 -141 -268 -326 -253 -352 13 -20 128 -68 200 -83 38 -8 124 -24 190
-37 121 -22 320 -80 348 -102 13 -10 -3 -32 -102 -139 -78 -83 -153 -177 -218
-275 -133 -196 -273 -431 -273 -455 0 -11 15 -35 34 -54 41 -41 5 -40 496 -18
199 8 365 12 368 9 10 -9 -23 -153 -79 -353 -41 -144 -50 -185 -40 -195 8 -8
55 -12 154 -12 119 1 154 5 217 24 97 30 173 69 255 131 l66 50 62 -56 c95
-86 272 -159 429 -178 l57 -7 5 -55 c3 -30 9 -79 12 -110 5 -47 9 -56 30 -65
39 -14 487 -12 502 3 8 8 12 51 12 128 l0 116 61 13 c39 8 127 46 249 108
l189 96 41 -37 c45 -41 123 -79 259 -127 253 -89 438 -96 524 -19 l32 28 0
313 0 313 194 115 c217 130 295 190 376 288 64 77 158 259 176 341 15 65 7 75
-75 91 -28 5 -114 22 -191 36 -77 15 -167 35 -200 46 -128 43 -171 98 -102
131 77 38 264 230 351 362 83 126 157 309 187 461 19 98 19 356 -1 379 -20 25
-64 16 -218 -43 -129 -49 -273 -94 -280 -87 -2 2 40 100 93 218 104 228 142
333 171 468 22 104 26 299 6 323 -16 19 -18 19 -277 -93 -213 -92 -382 -152
-512 -180 -98 -21 -340 -47 -349 -37 -10 9 10 136 81 522 36 193 67 360 69
373 7 43 -53 51 -199 26z m47 -154 c-1 -14 -36 -194 -77 -401 -41 -207 -75
-401 -75 -433 l0 -56 118 0 c293 0 555 59 931 209 85 34 156 60 158 57 7 -6
-61 -210 -114 -346 -60 -151 -157 -361 -199 -430 -34 -56 -76 -152 -88 -204
l-7 -29 53 6 c29 3 159 37 287 76 129 39 241 71 248 71 16 0 16 -27 2 -145
-25 -202 -99 -380 -227 -541 -82 -103 -248 -278 -336 -352 l-49 -42 17 -45
c23 -58 95 -138 149 -164 23 -11 119 -36 212 -56 94 -20 184 -40 202 -46 l32
-10 -20 -47 c-56 -130 -211 -310 -344 -399 -33 -22 -124 -72 -201 -112 -78
-40 -151 -81 -163 -92 -20 -19 -20 -24 -14 -252 3 -127 3 -258 -1 -289 l-7
-58 -38 0 c-49 0 -236 34 -329 60 -83 23 -192 75 -192 91 0 6 13 28 29 48 52
66 141 208 176 283 19 40 44 114 56 163 12 50 23 96 25 103 2 7 22 12 55 12
59 0 157 23 210 50 113 58 165 199 124 336 -27 91 -117 155 -237 169 l-57 7 6
202 c15 524 -61 874 -254 1164 -219 330 -435 490 -753 559 -128 27 -478 25
-610 -4 -417 -91 -671 -353 -809 -833 -75 -263 -129 -606 -138 -886 l-6 -182
-60 -16 c-78 -22 -162 -103 -192 -186 -29 -79 -28 -247 1 -310 48 -104 128
-150 274 -159 l95 -6 7 -67 c11 -117 47 -197 152 -347 37 -51 65 -95 63 -97
-2 -3 -82 -31 -176 -64 -155 -54 -211 -69 -211 -56 0 3 17 76 39 163 57 235
56 223 21 271 -52 72 -36 70 -400 59 -179 -5 -356 -7 -393 -3 -68 8 -69 8 -62
34 16 65 196 328 384 561 179 221 201 251 201 274 0 29 -81 101 -154 137 -34
16 -95 39 -137 49 -75 19 -315 51 -383 51 -19 0 -37 4 -41 10 -6 10 89 124
194 233 78 81 200 185 292 250 37 26 82 65 99 88 33 40 33 41 14 64 -188 232
-282 371 -364 540 -69 142 -102 248 -104 330 l-1 60 537 3 c477 2 538 4 538
18 0 8 -11 86 -25 172 -68 421 -106 712 -93 712 2 0 55 -17 118 -39 313 -105
576 -232 739 -355 63 -47 122 -86 132 -86 10 0 98 54 196 119 201 135 306 195
442 253 173 73 455 160 501 154 10 -1 14 -11 12 -26z m-727 -1024 c188 -40
326 -116 466 -257 179 -181 343 -505 409 -809 65 -297 17 -826 -115 -1272 -73
-245 -140 -381 -239 -485 l-68 -73 -47 34 c-91 67 -152 98 -167 85 -24 -20
-16 -32 61 -92 41 -32 75 -63 75 -68 0 -16 -92 -69 -104 -60 -112 88 -187 141
-198 141 -15 0 -38 -19 -38 -31 0 -4 31 -30 68 -57 37 -28 76 -60 86 -71 19
-20 18 -21 -35 -46 -81 -38 -91 -35 -178 50 -43 41 -82 75 -88 75 -6 0 -16 -7
-23 -15 -10 -12 -3 -27 45 -86 31 -39 54 -73 50 -77 -3 -4 -108 -8 -233 -10
-404 -7 -531 24 -684 167 -156 146 -281 384 -343 652 -63 277 -70 835 -15
1219 23 157 83 386 135 515 133 330 330 511 625 576 72 16 115 18 285 14 119
-2 228 -10 270 -19z m1137 -1932 c41 -21 58 -53 58 -107 0 -63 -22 -108 -77
-157 -46 -40 -131 -76 -145 -62 -5 5 5 55 22 113 18 64 30 127 30 165 0 33 3
64 7 68 10 10 70 -2 105 -20z m-2659 9 c7 -11 44 -247 51 -315 4 -56 4 -58
-20 -58 -58 0 -132 48 -161 103 -27 53 5 158 72 235 36 41 49 49 58 35z m1422
-1366 c4 -13 5 -48 3 -78 -3 -54 -3 -54 -41 -63 -27 -7 -52 -6 -85 4 -69 20
-118 23 -152 12 -38 -14 -42 -8 -48 79 l-5 69 161 0 c160 0 162 0 167 -23z"/>
<path d="M3136 4524 c-89 -45 -149 -82 -218 -136 -36 -28 -37 -30 -22 -54 21
-32 44 -30 78 5 24 25 115 72 248 129 46 20 47 21 37 51 -18 52 -27 53 -123 5z"/>
<path d="M1580 4506 c0 -45 62 -346 71 -346 4 0 20 11 35 24 l28 23 -12 78
c-7 43 -10 80 -7 83 3 3 38 -1 77 -9 97 -18 93 -19 93 19 0 32 -3 35 -70 64
-106 46 -215 78 -215 64z"/>
<path d="M2368 3379 c-274 -22 -537 -100 -573 -168 -19 -38 -20 -140 -1 -186
8 -19 17 -35 19 -35 2 0 37 11 78 26 190 65 371 93 664 101 312 8 586 -20 753
-79 43 -15 65 -19 73 -11 12 12 24 142 16 175 -5 19 -24 33 -74 56 -226 102
-604 150 -955 121z m417 -80 c219 -18 431 -58 509 -96 27 -13 35 -23 38 -50 2
-19 2 -36 -2 -38 -3 -2 -41 5 -85 16 -195 47 -330 62 -565 62 -251 0 -391 -14
-643 -64 -87 -17 -161 -29 -164 -25 -3 3 -7 26 -7 50 -1 56 12 67 114 100 190
61 448 75 805 45z"/>
<path d="M1952 2904 c-72 -19 -101 -35 -152 -86 -195 -194 -124 -580 126 -679
82 -32 223 -33 306 0 106 41 191 128 221 225 7 23 12 91 11 156 0 96 -4 125
-24 175 -26 68 -101 150 -165 179 -98 46 -221 58 -323 30z m284 -87 c28 -14
70 -47 92 -72 55 -63 77 -129 77 -235 0 -77 -4 -93 -33 -153 -56 -113 -159
-172 -297 -171 -177 2 -299 119 -321 307 -17 141 73 294 198 339 79 28 215 21
284 -15z"/>
<path d="M2022 2547 c-30 -32 -29 -81 3 -112 67 -68 175 26 118 103 -28 38
-90 42 -121 9z"/>
<path d="M2873 2895 c-146 -40 -237 -136 -278 -292 -56 -213 58 -462 243 -534
79 -30 209 -37 288 -14 130 37 232 123 276 233 20 50 23 74 23 187 0 112 -4
138 -24 188 -29 75 -112 165 -183 199 -100 48 -238 61 -345 33z m278 -84 c79
-30 132 -80 171 -159 31 -63 33 -72 33 -177 0 -104 -2 -114 -32 -176 -36 -74
-83 -116 -171 -157 -48 -22 -71 -26 -142 -26 -180 2 -299 94 -344 269 -20 75
-20 125 -1 199 31 120 116 208 231 241 67 20 185 13 255 -14z"/>
<path d="M2965 2515 c-53 -52 -18 -135 57 -135 70 0 103 86 53 135 -15 16 -36
25 -55 25 -19 0 -40 -9 -55 -25z"/>
<path d="M1734 2075 c-16 -24 -15 -27 2 -47 63 -70 207 -114 349 -105 49 3
107 11 128 18 33 11 37 16 37 47 0 26 -4 33 -14 29 -37 -14 -187 -28 -240 -22
-73 8 -152 37 -205 75 l-41 30 -16 -25z"/>
<path d="M3355 2025 c-82 -55 -188 -90 -275 -90 -41 0 -91 2 -110 5 -33 5 -35
4 -35 -25 0 -26 5 -31 40 -41 99 -30 252 -6 367 59 85 47 113 78 99 106 -15
28 -27 26 -86 -14z"/>
<path d="M2398 1939 c-15 -8 -18 -25 -18 -97 0 -120 16 -254 40 -334 51 -170
198 -210 272 -74 44 83 65 242 53 412 l-7 104 -29 0 c-37 0 -37 -2 -43 -215
-2 -93 -9 -186 -15 -206 -37 -119 -124 -118 -164 1 -20 58 -37 183 -37 264 0
87 -11 156 -24 156 -6 0 -19 -5 -28 -11z"/>
<path d="M3157 1422 c-23 -25 -22 -28 13 -42 17 -7 44 -28 61 -48 29 -33 31
-39 27 -99 l-4 -63 32 0 c39 0 45 18 32 92 -12 68 -49 131 -92 157 -41 26 -48
26 -69 3z"/>
<path d="M1833 1368 c-40 -42 -53 -76 -53 -143 0 -46 3 -55 21 -60 11 -4 23
-5 25 -2 2 2 8 35 13 72 7 61 11 71 42 96 28 23 32 31 23 46 -18 29 -37 26
-71 -9z"/>
<path d="M3050 1229 c-65 -23 -232 -62 -345 -80 -46 -8 -163 -13 -275 -13
-212 0 -312 16 -428 69 l-53 24 -10 -27 c-16 -40 -1 -54 87 -84 113 -38 237
-58 409 -65 227 -9 431 22 617 93 77 29 91 42 82 78 -7 30 -12 31 -84 5z"/>
</g>
</svg>
